<?xml version="1.0" standalone="no"?>
<!DOCTYPE svg PUBLIC "-//W3C//DTD SVG 20010904//EN"
 "http://www.w3.org/TR/2001/REC-SVG-20010904/DTD/svg10.dtd">
<svg version="1.0" xmlns="http://www.w3.org/2000/svg"
 width="1280.000000pt" height="1239.000000pt" viewBox="0 0 1280.000000 1239.000000"
 preserveAspectRatio="xMidYMid meet">
<metadata>
Created by potrace 1.15, written by Peter Selinger 2001-2017
</metadata>
<g transform="translate(0.000000,1239.000000) scale(0.100000,-0.100000)"
fill="#000000" stroke="none">
<path d="M6010 12063 c-68 -2 -129 -8 -134 -13 -6 -6 -33 -10 -60 -10 -81 0
-309 -21 -331 -30 -11 -5 -54 -12 -95 -16 -41 -3 -81 -10 -90 -14 -8 -5 -55
-14 -105 -21 -49 -7 -94 -15 -100 -19 -5 -4 -37 -11 -70 -15 -33 -4 -64 -10
-70 -15 -5 -4 -44 -13 -85 -20 -41 -7 -79 -16 -85 -20 -5 -5 -28 -11 -50 -15
-22 -4 -44 -11 -50 -15 -5 -5 -38 -14 -72 -20 -35 -7 -63 -16 -63 -20 0 -4
-17 -11 -37 -15 -21 -4 -42 -10 -48 -15 -5 -4 -36 -13 -67 -20 -32 -7 -58 -17
-58 -22 0 -4 -8 -8 -17 -8 -10 0 -30 -6 -45 -14 -15 -8 -42 -17 -60 -21 -18
-4 -44 -13 -58 -20 -42 -21 -93 -42 -130 -55 -69 -24 -554 -262 -655 -321 -27
-16 -57 -32 -65 -36 -8 -3 -29 -17 -47 -29 -17 -13 -42 -29 -55 -35 -52 -23
-180 -107 -186 -121 -2 -5 -8 -8 -14 -8 -6 0 -26 -11 -44 -25 -18 -14 -35 -25
-39 -25 -7 0 -93 -63 -116 -85 -9 -8 -19 -15 -24 -15 -5 0 -34 -22 -66 -50
-32 -27 -61 -50 -65 -50 -8 0 -123 -94 -169 -138 -17 -16 -36 -31 -42 -33 -7
-2 -64 -52 -127 -111 -63 -60 -119 -108 -125 -108 -6 0 -11 -7 -11 -15 0 -8
-7 -15 -16 -15 -9 0 -18 -9 -21 -20 -3 -11 -11 -20 -17 -20 -15 0 -96 -82 -96
-98 0 -7 -7 -12 -15 -12 -8 0 -20 -10 -26 -22 -7 -13 -62 -76 -123 -141 -61
-65 -113 -123 -115 -128 -2 -6 -16 -25 -32 -42 -55 -59 -159 -185 -159 -192 0
-4 -18 -29 -40 -55 -22 -26 -40 -53 -40 -59 0 -6 -7 -14 -15 -17 -8 -4 -15
-11 -15 -16 0 -5 -16 -29 -35 -52 -19 -24 -35 -47 -35 -51 0 -4 -15 -26 -33
-49 -19 -23 -47 -63 -63 -89 -16 -27 -39 -65 -51 -85 -12 -21 -27 -48 -33 -62
-6 -14 -17 -32 -25 -40 -7 -8 -23 -33 -36 -55 -12 -22 -33 -58 -45 -80 -13
-22 -51 -96 -86 -165 -35 -69 -66 -126 -70 -128 -5 -2 -8 -8 -8 -13 0 -8 -28
-71 -100 -224 -35 -76 -60 -135 -60 -144 0 -5 -8 -24 -17 -43 -35 -71 -41 -84
-48 -118 -4 -19 -11 -41 -15 -50 -27 -58 -40 -91 -50 -135 -6 -27 -15 -54 -19
-60 -5 -5 -11 -27 -15 -47 -4 -20 -13 -50 -21 -65 -8 -15 -18 -49 -21 -75 -4
-27 -10 -48 -15 -48 -4 0 -11 -21 -15 -47 -3 -27 -10 -52 -14 -58 -4 -5 -13
-41 -20 -80 -7 -38 -16 -75 -21 -80 -4 -6 -11 -35 -15 -65 -4 -30 -10 -59 -14
-65 -5 -5 -14 -55 -21 -110 -7 -55 -16 -105 -20 -111 -5 -6 -12 -50 -15 -97
-4 -48 -10 -87 -14 -87 -7 0 -16 -82 -26 -260 -4 -58 -12 -111 -18 -119 -15
-20 -15 -869 1 -902 6 -13 16 -105 23 -204 7 -99 16 -184 20 -190 4 -5 10 -43
14 -84 3 -41 10 -79 15 -85 4 -6 13 -55 20 -109 7 -54 19 -110 27 -125 13 -25
14 -21 9 53 -4 44 -11 89 -16 100 -31 69 -30 1199 1 1240 4 6 11 58 15 118 4
59 10 107 14 107 4 0 13 55 20 122 7 68 16 125 20 128 4 3 11 34 14 69 4 35
11 69 16 75 5 6 14 50 21 99 7 48 16 89 20 92 5 3 12 30 15 60 4 30 10 55 14
55 4 0 13 34 20 75 8 42 17 78 22 80 4 3 11 26 15 50 3 25 10 47 14 50 4 3 14
29 20 57 7 29 16 58 20 63 4 6 11 26 15 45 4 19 11 40 15 45 5 6 13 30 19 55
11 43 17 59 46 125 8 17 17 41 20 55 4 14 19 52 35 85 15 33 33 76 40 95 23
66 206 442 270 555 22 39 43 78 46 88 4 9 9 17 13 17 4 0 13 17 20 38 8 20 27
53 42 73 16 20 29 41 29 47 0 5 15 29 33 53 39 55 54 77 69 109 7 14 18 29 25
33 7 4 13 13 13 18 0 6 16 30 35 53 19 24 35 47 35 51 0 4 16 27 35 51 19 23
35 45 35 48 0 3 7 14 15 24 44 50 115 142 115 149 0 7 78 98 180 211 17 18 30
36 30 40 0 4 87 95 193 203 173 176 273 271 392 374 148 128 204 175 210 175
4 0 29 18 55 40 26 22 51 40 55 40 4 0 18 11 31 25 13 14 26 25 29 25 4 0 26
16 49 35 24 19 46 35 50 35 4 0 28 17 55 38 27 20 64 46 82 57 19 11 45 27 59
35 14 8 39 25 54 38 16 12 35 22 42 22 7 0 17 6 21 13 4 6 30 23 56 37 86 45
110 59 116 67 3 5 31 21 61 36 30 16 124 64 209 107 85 44 167 82 182 85 16 4
29 10 29 14 0 4 19 14 43 22 23 7 60 23 82 35 22 11 58 26 80 33 39 12 85 31
135 57 14 7 42 15 63 19 20 4 39 11 42 15 3 5 23 11 45 15 22 4 42 10 45 15 3
4 29 14 57 20 29 7 58 16 63 20 6 4 26 11 45 15 19 4 40 11 45 15 6 4 39 13
75 20 36 7 70 16 75 20 6 4 30 11 55 15 25 4 50 11 55 15 6 4 46 14 90 20 44
7 85 16 90 20 6 4 39 11 75 15 36 4 67 11 70 15 3 5 59 13 125 20 66 7 127 16
137 20 9 5 63 12 120 16 56 4 106 12 110 18 10 15 1045 16 1056 1 4 -5 12 -10
17 -10 64 -2 222 -19 234 -25 9 -5 68 -14 131 -20 63 -7 120 -16 125 -20 6 -4
37 -11 69 -15 33 -4 66 -11 75 -15 9 -5 50 -14 91 -20 41 -7 80 -16 85 -20 6
-5 28 -11 50 -15 22 -4 45 -11 50 -15 6 -4 39 -13 75 -20 36 -7 70 -17 76 -21
6 -5 32 -12 58 -15 25 -4 46 -10 46 -15 0 -4 26 -13 58 -20 31 -7 66 -18 77
-26 11 -7 27 -13 36 -13 9 0 22 -6 28 -13 9 -12 -25 -15 -201 -20 -116 -4
-216 -11 -222 -16 -6 -4 -60 -11 -121 -15 -60 -4 -114 -11 -120 -15 -5 -5 -64
-14 -129 -20 -66 -6 -125 -16 -130 -20 -6 -5 -41 -12 -78 -16 -38 -3 -68 -10
-68 -14 0 -4 -42 -13 -92 -21 -51 -7 -101 -18 -110 -24 -21 -13 -36 0 -20 16
7 7 12 26 12 43 0 37 22 60 68 70 17 3 32 11 32 16 0 5 28 10 63 10 59 1 60 2
22 10 -22 4 -61 8 -87 8 -26 1 -49 5 -52 10 -3 5 -42 12 -86 16 -62 5 -86 4
-103 -7 -12 -8 -42 -20 -67 -27 -25 -8 -59 -20 -77 -27 -17 -8 -38 -14 -47
-14 -9 0 -16 -4 -16 -8 0 -4 -17 -14 -37 -21 -39 -14 -73 -38 -73 -52 0 -4 16
-11 35 -15 26 -5 41 -2 54 10 10 9 25 16 35 16 13 0 16 5 11 21 -6 19 -4 21
16 16 13 -4 27 -7 32 -7 30 0 -41 -70 -72 -70 -5 0 -42 -18 -82 -40 -41 -22
-86 -46 -101 -52 -16 -7 -28 -16 -28 -20 0 -4 -5 -8 -12 -8 -7 0 -24 -12 -39
-26 -25 -24 -33 -26 -73 -20 -25 4 -46 11 -46 17 0 14 -69 11 -84 -3 -7 -7
-15 -20 -18 -29 -4 -9 -23 -19 -45 -22 -21 -4 -50 -17 -65 -29 l-27 -23 20
-24 c17 -21 23 -23 40 -13 10 7 26 12 34 12 28 0 15 -16 -27 -34 -24 -10 -72
-32 -108 -49 -79 -38 -130 -57 -151 -57 -8 0 -25 -11 -38 -24 -12 -12 -40 -29
-61 -36 -22 -7 -40 -16 -40 -21 0 -4 -12 -10 -27 -14 -15 -3 -31 -12 -35 -18
-10 -17 -218 -11 -252 7 l-26 13 23 21 c25 23 62 33 39 10 -7 -7 -12 -16 -12
-20 0 -14 27 -9 40 7 11 13 9 20 -9 38 -29 31 -27 44 9 52 23 5 35 1 57 -19
15 -14 33 -26 40 -26 7 0 13 -4 13 -10 0 -5 11 -10 25 -10 21 0 25 5 25 29 0
22 -10 38 -37 60 -21 17 -42 31 -47 31 -5 0 -24 11 -42 25 -18 14 -37 25 -42
25 -6 0 -12 6 -15 13 -3 8 -18 1 -46 -21 -23 -18 -57 -36 -76 -39 -20 -3 -38
-10 -41 -14 -8 -13 -77 -10 -95 4 -19 15 -49 74 -41 81 3 3 15 6 28 6 12 0 32
8 44 18 19 15 20 20 7 30 -8 7 -49 17 -92 22 -58 7 -85 16 -102 32 -41 38 -5
96 66 105 41 6 51 19 30 40 -32 32 49 53 90 24 15 -11 39 -23 54 -26 15 -4 27
-10 27 -14 0 -5 19 -14 43 -21 89 -27 97 -33 97 -66 0 -20 9 -39 25 -54 14
-13 25 -32 25 -42 0 -10 4 -18 9 -18 5 0 11 -9 14 -20 3 -11 14 -20 24 -20 10
0 24 -5 31 -12 6 -6 55 -13 114 -16 96 -4 104 -3 123 17 30 34 10 55 -56 59
-29 2 -58 7 -64 11 -5 5 -26 14 -46 20 -19 6 -51 27 -69 46 -51 52 -35 61 106
57 89 -3 122 0 146 12 17 9 39 16 50 16 10 0 27 5 38 10 11 6 29 15 40 20 11
6 27 10 35 10 9 0 18 6 21 14 3 8 14 16 25 19 12 3 19 13 18 29 -1 12 -3 16
-5 8 -7 -23 -68 -59 -114 -66 -22 -4 -43 -11 -46 -15 -8 -14 -24 -10 -24 5 0
8 20 23 44 35 25 11 47 25 51 31 3 5 15 10 25 10 10 0 22 5 25 11 12 18 -1 20
-31 5 -61 -31 -125 -56 -143 -56 -11 0 -23 -4 -26 -10 -7 -11 -158 -14 -169
-3 -26 26 -148 43 -161 23 -16 -26 -58 -9 -109 43 -42 43 -61 55 -96 61 -24 4
-50 12 -57 18 -9 7 -17 7 -25 0 -7 -5 -35 -13 -63 -16 -27 -4 -63 -13 -80 -20
-16 -8 -60 -17 -97 -21 -38 -3 -68 -10 -68 -14 0 -5 -21 -11 -46 -15 -26 -3
-52 -10 -58 -15 -6 -4 -40 -14 -76 -21 -36 -7 -69 -16 -75 -20 -5 -4 -27 -10
-47 -14 -21 -4 -38 -11 -38 -16 0 -6 -10 -10 -22 -10 -23 0 -83 -19 -103 -32
-6 -3 -27 -9 -48 -13 -20 -4 -37 -11 -37 -15 0 -5 -15 -12 -32 -15 -18 -4 -44
-13 -58 -20 -53 -26 -97 -44 -135 -56 -22 -7 -47 -19 -56 -26 -8 -7 -22 -13
-30 -13 -8 0 -23 -7 -33 -15 -11 -8 -26 -15 -34 -15 -18 0 -106 -42 -110 -52
-2 -5 -8 -8 -13 -8 -11 0 -121 -51 -129 -60 -3 -3 -16 -11 -30 -18 -14 -6 -32
-16 -40 -21 -8 -5 -22 -12 -30 -16 -8 -3 -33 -17 -55 -30 -22 -14 -68 -38
-102 -55 -34 -17 -63 -35 -65 -39 -2 -5 -12 -11 -23 -13 -14 -2 -24 7 -36 31
-9 19 -19 29 -23 23 -3 -6 -2 -13 4 -17 18 -11 12 -69 -9 -80 -35 -18 -111
-69 -159 -107 -26 -21 -51 -38 -55 -38 -5 0 -26 -13 -47 -30 -21 -16 -43 -30
-49 -30 -5 0 -15 -9 -21 -20 -6 -11 -15 -20 -21 -20 -6 0 -39 -25 -74 -55 -34
-30 -66 -55 -70 -55 -4 0 -40 -29 -80 -65 -40 -36 -76 -65 -80 -65 -3 0 -37
-31 -73 -68 -37 -37 -80 -76 -97 -87 -24 -16 -27 -20 -13 -23 10 -2 18 -7 18
-12 0 -4 24 -13 53 -20 28 -6 61 -15 72 -20 11 -4 28 -11 38 -14 12 -4 17 -16
17 -40 0 -19 5 -38 10 -41 6 -4 8 -10 5 -15 -3 -5 8 -24 24 -42 24 -26 32 -31
42 -21 14 14 13 90 0 108 -5 5 -11 27 -15 48 -4 20 -11 37 -16 37 -6 0 -10 5
-10 11 0 6 8 7 23 3 28 -10 68 -9 76 3 6 8 115 63 125 63 3 0 -2 -9 -11 -20
-10 -11 -22 -20 -28 -20 -6 0 -33 -19 -60 -43 -56 -50 -55 -73 4 -62 20 4 38
10 41 14 3 3 30 19 60 34 107 55 184 97 194 107 12 12 56 13 56 2 0 -5 19 -15
43 -22 23 -8 48 -18 55 -23 8 -6 18 -5 29 4 19 17 155 18 175 2 7 -6 32 -14
55 -18 34 -5 51 -16 83 -52 22 -25 40 -50 40 -56 0 -6 11 -25 25 -43 14 -18
25 -37 25 -43 0 -6 5 -11 10 -11 6 0 10 -5 10 -11 0 -6 18 -33 40 -59 22 -26
40 -51 40 -56 0 -4 18 -29 40 -55 22 -26 40 -50 40 -54 0 -3 12 -17 27 -31 24
-22 39 -44 59 -82 4 -9 -13 -33 -45 -66 -28 -28 -51 -55 -51 -60 0 -4 -11 -20
-24 -34 -70 -77 -156 -180 -156 -187 0 -4 -20 -32 -45 -61 -25 -28 -45 -56
-45 -61 0 -4 -20 -33 -45 -63 -25 -30 -45 -59 -45 -63 0 -5 -13 -26 -28 -46
-16 -20 -32 -44 -35 -53 -4 -10 -11 -18 -17 -18 -5 0 -10 -5 -10 -11 0 -6 -11
-25 -25 -43 -14 -18 -25 -37 -25 -41 0 -4 -10 -22 -23 -39 -12 -17 -28 -42
-36 -56 -22 -43 -76 -135 -109 -185 -7 -11 -18 -32 -25 -47 -8 -21 -18 -28
-39 -28 -36 0 -43 15 -23 46 16 24 15 27 -1 45 -9 10 -23 19 -31 19 -7 0 -13
5 -13 10 0 6 -7 10 -15 10 -18 0 -19 12 -3 28 15 15 -5 39 -47 57 -32 13 -32
14 -37 94 -3 56 -10 86 -21 99 -10 10 -17 23 -17 29 0 15 -30 38 -70 53 -19 8
-41 20 -48 27 -7 7 -21 18 -31 25 -10 7 -29 38 -44 69 -32 69 -48 83 -95 81
-70 -3 -85 5 -110 61 -12 29 -22 56 -22 60 0 21 -42 97 -51 91 -7 -4 -7 -10 0
-18 6 -7 13 -31 17 -54 4 -23 11 -45 15 -48 5 -3 9 -16 9 -30 0 -28 -11 -27
-75 1 -16 7 -48 17 -70 20 -22 4 -44 11 -50 15 -5 4 -41 11 -80 15 -38 4 -74
10 -80 15 -5 4 -27 10 -48 14 -22 4 -54 21 -76 42 -67 60 -131 43 -145 -38 -4
-21 -12 -38 -18 -38 -6 0 -19 -6 -27 -14 -9 -8 -33 -17 -53 -21 -35 -7 -38 -5
-38 16 0 38 11 69 25 69 12 0 45 31 45 44 0 3 -12 11 -26 17 -31 11 -56 -6
-80 -56 -26 -54 -42 -78 -58 -87 -9 -5 -16 -14 -16 -20 0 -5 -13 -27 -29 -47
-15 -20 -31 -46 -35 -57 -4 -12 -15 -29 -26 -39 -11 -10 -20 -24 -20 -32 0 -7
-4 -13 -9 -13 -5 0 -13 -15 -16 -32 -4 -18 -15 -42 -25 -53 -29 -31 -70 -110
-260 -495 -15 -30 -31 -70 -34 -88 -4 -17 -12 -32 -17 -32 -5 0 -9 -8 -9 -17
0 -10 -6 -30 -14 -45 -8 -14 -19 -43 -26 -65 -7 -21 -25 -65 -40 -98 -16 -33
-32 -78 -36 -99 -4 -22 -13 -51 -20 -65 -8 -14 -14 -34 -14 -43 0 -9 -4 -19
-9 -22 -5 -3 -12 -25 -15 -49 -4 -23 -13 -54 -20 -69 -8 -14 -17 -45 -21 -67
-4 -23 -10 -43 -15 -46 -4 -2 -13 -42 -20 -87 -7 -46 -16 -87 -20 -93 -4 -5
-11 -28 -15 -50 -4 -22 -10 -44 -15 -50 -4 -5 -13 -53 -19 -105 -7 -52 -16
-99 -20 -105 -5 -5 -12 -48 -16 -95 -4 -47 -11 -87 -15 -90 -4 -3 -13 -84 -20
-180 -7 -96 -16 -179 -21 -184 -12 -13 -12 -833 0 -840 4 -3 14 -84 21 -181 7
-97 16 -178 21 -180 4 -3 11 -46 15 -95 3 -50 10 -90 14 -90 4 0 13 -42 20
-92 7 -51 16 -97 20 -103 4 -5 11 -30 15 -55 4 -24 11 -51 15 -60 5 -8 14 -49
21 -90 7 -41 15 -79 19 -85 4 -5 11 -26 15 -45 4 -19 11 -39 15 -45 3 -5 12
-37 19 -70 7 -33 18 -73 26 -90 28 -64 35 -81 45 -122 6 -23 17 -54 25 -70 8
-15 15 -35 15 -44 0 -8 4 -19 8 -25 4 -5 14 -27 21 -49 14 -43 42 -107 52
-115 3 -3 9 -18 13 -35 4 -16 25 -67 47 -112 21 -46 39 -87 39 -91 0 -8 15
-38 58 -117 6 -11 19 -38 29 -60 10 -22 31 -59 46 -83 15 -24 32 -53 38 -65 5
-12 18 -35 29 -52 11 -16 25 -41 32 -55 7 -14 15 -27 18 -30 5 -5 24 -37 44
-75 6 -11 21 -34 34 -52 12 -17 22 -36 22 -42 0 -6 5 -11 10 -11 6 0 10 -5 10
-11 0 -6 18 -33 40 -59 22 -26 40 -51 40 -55 0 -4 13 -24 30 -45 16 -21 30
-43 30 -49 0 -7 7 -14 15 -17 8 -4 15 -11 15 -16 0 -6 25 -39 55 -73 30 -35
55 -67 55 -72 0 -4 25 -36 55 -70 30 -33 55 -65 55 -69 0 -4 18 -24 40 -45 22
-21 40 -43 40 -48 0 -12 480 -491 492 -491 5 0 31 -23 57 -50 26 -28 52 -50
56 -50 4 0 27 -18 51 -40 24 -22 48 -40 54 -40 6 0 46 -29 88 -65 116 -98 128
-107 178 -130 17 -7 37 -22 45 -31 14 -17 173 -124 185 -124 3 0 21 -12 39
-26 30 -23 104 -65 185 -106 14 -7 27 -15 30 -18 17 -18 418 -216 530 -262 14
-6 32 -14 41 -18 9 -5 33 -12 53 -15 20 -4 36 -10 36 -14 0 -4 17 -13 38 -20
42 -14 100 -38 122 -50 9 -5 42 -14 73 -22 32 -7 60 -16 63 -21 3 -4 13 -8 22
-8 9 0 29 -6 44 -14 15 -8 53 -20 85 -26 32 -7 63 -16 68 -20 6 -4 29 -11 52
-15 24 -4 45 -10 48 -15 3 -4 43 -14 90 -21 47 -7 88 -16 91 -21 3 -4 22 -8
42 -8 20 0 49 -6 63 -14 15 -7 73 -19 130 -26 57 -6 109 -15 114 -20 6 -4 51
-11 100 -15 50 -4 95 -11 100 -15 12 -10 350 -30 506 -30 71 0 119 -4 126 -11
8 -8 17 -7 33 4 l23 16 -32 29 c-28 25 -30 30 -17 41 23 19 70 10 74 -14 10
-69 3 -65 112 -65 94 0 100 1 100 20 0 31 28 36 55 10 24 -23 27 -23 201 -17
97 4 182 11 188 16 6 5 52 12 101 16 50 4 95 11 100 15 6 5 55 13 110 20 55 7
105 16 111 21 7 5 36 12 65 16 30 3 59 9 64 13 6 5 46 13 90 20 44 7 85 16 90
20 6 5 28 11 50 15 22 4 45 11 50 15 6 4 36 13 68 20 32 6 70 18 85 26 15 8
35 14 44 14 9 0 19 4 22 8 3 5 31 14 63 21 31 8 64 17 73 21 47 22 89 40 123
51 20 7 37 16 37 20 0 4 16 10 36 14 20 3 44 10 53 15 9 4 27 12 41 18 110 44
471 224 565 281 22 14 63 36 90 50 28 14 66 37 85 51 34 24 56 38 113 67 16 9
31 21 34 29 3 8 11 14 19 14 8 0 31 15 51 32 42 36 65 52 103 71 14 6 32 18
40 24 91 76 150 123 156 123 4 0 33 22 65 50 32 27 61 50 65 50 4 0 29 23 56
50 26 28 52 50 57 50 13 0 471 457 471 469 0 6 23 32 50 59 28 27 50 52 50 56
0 5 29 41 65 81 36 40 65 76 65 79 0 4 27 40 60 80 33 40 60 76 60 80 0 5 13
25 30 46 16 21 30 41 30 45 0 6 49 73 89 121 5 6 11 20 15 31 4 11 15 28 26
38 11 10 20 22 20 27 0 5 13 28 28 51 15 23 34 53 40 67 29 58 44 80 51 80 5
0 11 14 15 31 3 17 15 42 26 56 11 14 20 32 20 39 0 8 4 14 9 14 5 0 12 13 16
30 4 16 10 30 13 30 9 0 32 49 32 67 0 7 4 13 9 13 5 0 12 13 16 30 4 17 10
30 14 30 4 0 13 17 20 37 7 21 28 70 46 108 54 116 65 142 65 158 0 9 4 19 10
22 5 3 -3 28 -19 58 -16 29 -32 68 -36 87 -4 19 -17 49 -30 65 -12 17 -25 40
-29 51 -3 12 -15 29 -26 39 -11 10 -20 23 -20 28 0 5 -8 16 -17 23 -16 11 -18
35 -18 239 l0 227 -33 29 c-30 27 -38 29 -80 23 -26 -4 -48 -11 -50 -15 -9
-24 -47 2 -93 64 -11 15 -27 27 -35 27 -8 0 -14 5 -14 10 0 24 -54 32 -125 20
-38 -7 -74 -16 -80 -20 -5 -4 -26 -11 -45 -15 -19 -4 -41 -12 -48 -17 -7 -6
-87 -14 -179 -19 -91 -5 -171 -13 -177 -19 -13 -13 -93 -13 -101 0 -3 6 -15
10 -25 10 -10 0 -32 11 -48 25 -17 14 -34 25 -39 25 -5 0 -39 30 -75 68 -55
55 -69 76 -78 117 -14 58 -40 117 -57 128 -7 4 -13 13 -13 19 0 7 -17 32 -38
57 -20 25 -46 64 -57 86 -11 22 -23 42 -27 43 -5 2 -8 9 -8 16 0 7 -11 23 -25
36 -29 27 -31 44 -10 83 23 45 35 167 35 373 0 123 4 194 10 194 6 0 10 6 10
13 0 6 20 34 45 60 24 27 51 61 59 75 7 15 23 45 35 67 21 39 118 145 133 145
11 0 58 42 58 52 0 5 12 26 28 45 24 32 27 47 30 124 l4 87 79 76 c44 41 86
90 94 108 7 19 22 42 34 52 19 18 21 18 50 -3 29 -21 89 -28 107 -13 5 5 36
15 69 22 33 7 65 16 70 20 6 5 27 11 48 15 20 4 37 11 37 16 0 5 10 9 22 9 20
0 68 13 113 31 11 4 88 10 170 14 83 3 154 11 160 16 19 19 81 10 106 -17 19
-21 24 -36 24 -84 0 -34 -6 -65 -13 -72 -43 -43 49 -134 155 -154 18 -3 50
-18 71 -33 20 -15 53 -33 72 -41 19 -8 37 -17 40 -21 13 -18 106 -59 134 -59
l31 0 -3 60 c-2 33 -7 60 -12 60 -5 0 -11 35 -15 78 -3 42 -10 86 -15 97 -5
11 -14 58 -20 104 -6 46 -15 91 -20 100 -5 9 -12 33 -15 53 -7 42 -20 55 -40
38 -18 -15 -31 6 -15 25 6 8 7 16 2 19 -6 3 -13 22 -16 41 -4 20 -14 39 -22
42 -7 3 -14 11 -14 19 0 8 -7 14 -15 14 -8 0 -15 4 -15 8 0 5 -18 15 -39 22
-47 15 -208 160 -217 195 -9 38 -58 77 -96 78 -35 1 -102 -25 -113 -43 -3 -6
-39 -10 -78 -10 -40 0 -81 -3 -92 -6 -27 -7 -65 -67 -65 -102 0 -33 -35 -68
-95 -97 -63 -31 -95 -64 -95 -100 0 -63 -75 -165 -122 -165 -8 0 -18 -4 -23
-8 -6 -5 -37 -15 -70 -22 -33 -7 -69 -19 -82 -27 -25 -17 -44 -9 -82 31 -16
17 -35 26 -56 26 -21 0 -40 9 -58 28 l-27 28 6 187 c6 164 9 189 26 203 16 15
36 16 170 11 93 -4 154 -11 159 -18 5 -8 8 -8 13 0 4 6 15 11 25 11 10 0 28
12 42 26 21 23 24 35 23 102 0 64 -5 86 -27 129 -30 58 -81 113 -103 113 -8 0
-14 5 -14 10 0 6 -7 10 -15 10 -8 0 -15 4 -15 9 0 16 27 31 44 25 24 -9 86 5
86 20 0 21 32 44 73 51 20 4 48 16 61 26 13 11 28 19 33 19 12 0 48 40 56 61
6 18 61 49 87 49 29 0 80 62 80 98 0 25 4 32 19 32 10 0 29 8 42 18 48 35 86
51 137 58 28 3 57 13 63 20 7 8 7 14 2 14 -6 0 -30 39 -53 88 -24 48 -56 103
-72 123 -15 20 -28 40 -28 44 0 6 -31 58 -107 184 -12 20 -26 46 -32 57 -5 12
-17 24 -25 27 -9 4 -16 12 -16 18 0 7 -15 30 -33 53 -18 23 -38 52 -45 66 -18
38 -34 61 -64 91 -16 16 -28 31 -28 35 0 3 -22 32 -50 64 -27 32 -50 61 -50
65 0 9 -134 164 -215 248 -36 37 -65 71 -65 75 0 5 -60 65 -132 136 -73 70
-165 159 -204 197 -40 38 -75 69 -79 69 -4 0 -40 29 -80 65 -40 36 -76 65 -80
65 -4 0 -31 20 -59 45 -29 25 -56 45 -60 45 -4 0 -18 12 -32 27 -25 27 -47 42
-101 68 -17 8 -35 19 -38 25 -10 16 -25 1 -25 -26 0 -17 8 -27 25 -34 27 -10
35 -40 11 -40 -20 0 -111 47 -126 65 -7 8 -21 15 -31 15 -10 0 -21 5 -24 10
-9 14 -61 12 -73 -2 -5 -7 -12 -22 -14 -33 -3 -18 -10 -20 -71 -16 -57 3 -68
0 -74 -15 -5 -13 4 -26 32 -49 35 -30 37 -34 27 -63 -15 -42 -1 -51 78 -50 99
1 180 -48 180 -109 0 -49 -36 -45 -73 9 -28 40 -29 40 -79 36 -52 -5 -68 -18
-68 -54 0 -11 -13 -33 -30 -49 -16 -15 -27 -32 -24 -37 3 -4 45 -8 94 -8 49 0
92 -4 95 -10 3 -5 18 -10 33 -10 25 -1 24 -2 -12 -20 -22 -11 -47 -20 -56 -20
-8 0 -24 -6 -35 -14 -11 -7 -45 -19 -75 -26 -30 -8 -59 -17 -64 -22 -6 -4 -49
-8 -97 -8 -157 0 -204 -9 -248 -46 -22 -19 -45 -34 -51 -34 -22 0 -71 -42 -68
-59 4 -20 -32 -91 -52 -102 -54 -28 -88 -39 -126 -39 -31 0 -51 -7 -72 -25
-17 -14 -34 -25 -39 -25 -11 0 -113 -103 -113 -114 0 -4 -9 -19 -20 -33 -11
-14 -20 -35 -20 -45 0 -11 -11 -33 -25 -50 -21 -25 -25 -40 -25 -97 0 -68 0
-69 -45 -110 -52 -48 -89 -54 -99 -16 -4 14 -13 25 -21 25 -9 0 -23 4 -33 9
-9 6 -34 13 -56 16 -30 5 -52 21 -107 76 -38 39 -69 75 -69 81 0 5 -13 27 -30
48 -26 33 -30 46 -30 100 l0 61 -32 -3 c-26 -3 -32 1 -41 25 -7 23 -5 32 12
51 12 12 21 30 21 39 0 9 3 17 8 17 11 0 34 57 30 77 -4 25 -45 28 -69 7 -14
-13 -18 -14 -14 -3 3 8 24 25 45 39 44 27 50 47 21 76 -18 19 -17 20 15 57 19
20 34 42 34 49 0 6 -20 31 -45 55 -44 41 -50 63 -20 63 8 0 18 6 22 13 4 7 19
18 33 25 14 7 39 21 55 32 17 11 41 25 55 32 14 7 28 16 31 21 6 9 45 31 129
73 30 15 69 37 85 49 17 12 46 28 65 35 19 8 39 20 43 27 4 7 14 13 21 13 7 0
31 9 54 20 22 11 45 20 51 20 5 0 11 3 13 8 4 9 113 62 127 62 6 0 11 4 11 9
0 5 12 12 28 16 26 6 51 16 167 70 28 12 66 28 85 35 42 14 75 27 115 46 17 7
50 18 75 24 43 10 57 15 125 45 17 8 55 19 85 26 30 6 60 15 65 19 6 4 28 11
50 15 22 4 45 10 50 14 6 5 39 14 75 21 36 7 69 17 74 21 13 12 86 12 86 0 0
-7 72 -57 129 -88 13 -7 39 -27 58 -43 18 -17 38 -30 43 -30 4 0 35 -22 67
-50 32 -27 62 -50 67 -50 5 0 37 -25 71 -55 35 -30 67 -55 72 -55 5 0 23 -16
39 -35 16 -19 35 -35 42 -35 15 0 612 -593 612 -609 0 -6 20 -31 45 -55 25
-25 45 -49 45 -52 0 -4 23 -33 50 -65 28 -32 50 -61 50 -64 0 -4 18 -29 40
-55 22 -26 40 -53 40 -59 0 -5 9 -15 20 -21 11 -6 20 -16 20 -23 1 -7 14 -28
30 -47 17 -19 30 -38 30 -42 0 -5 18 -32 40 -61 55 -71 62 -82 94 -142 6 -11
25 -40 41 -65 48 -72 54 -83 75 -125 21 -42 41 -77 51 -85 3 -3 11 -21 19 -40
7 -19 19 -42 27 -51 7 -8 13 -23 13 -32 0 -9 4 -17 8 -17 4 0 13 -12 20 -27 6
-16 24 -50 38 -78 14 -27 30 -58 35 -67 5 -10 9 -25 9 -33 0 -8 4 -15 9 -15 5
0 12 -13 16 -30 4 -16 10 -30 14 -30 4 0 13 -17 20 -37 7 -21 23 -60 36 -88
13 -27 28 -66 35 -85 13 -36 34 -87 55 -130 7 -14 16 -41 20 -60 4 -19 11 -39
15 -45 4 -5 11 -26 15 -45 4 -19 13 -44 21 -55 7 -11 16 -38 20 -60 3 -22 10
-44 14 -50 5 -5 11 -27 15 -48 4 -20 11 -39 15 -42 5 -3 14 -31 21 -63 7 -31
16 -61 20 -67 4 -5 10 -34 14 -62 4 -29 11 -55 15 -58 5 -3 14 -38 20 -78 7
-39 16 -76 20 -82 4 -5 11 -36 14 -67 4 -32 11 -60 15 -63 5 -2 14 -55 21
-117 7 -62 16 -118 21 -123 4 -6 11 -51 15 -100 3 -50 10 -94 14 -100 9 -12
30 -273 30 -377 0 -41 5 -79 10 -84 11 -11 8 -573 -4 -684 -3 -30 -11 -134
-17 -230 -7 -96 -15 -179 -19 -185 -4 -5 -11 -48 -15 -95 -4 -47 -10 -89 -14
-95 -5 -5 -14 -57 -21 -115 -7 -58 -16 -109 -20 -115 -4 -5 -11 -36 -14 -67
-4 -32 -11 -60 -16 -63 -4 -3 -13 -43 -20 -90 -7 -47 -16 -87 -20 -90 -5 -3
-11 -24 -15 -48 -4 -23 -11 -46 -15 -52 -4 -5 -13 -39 -20 -75 -7 -36 -16 -69
-20 -75 -4 -5 -11 -26 -15 -45 -4 -19 -11 -39 -15 -45 -4 -5 -13 -32 -20 -60
-7 -27 -16 -54 -20 -60 -4 -5 -11 -26 -15 -45 -4 -19 -11 -39 -15 -45 -4 -5
-10 -23 -14 -40 -7 -29 -22 -67 -51 -130 -8 -16 -17 -43 -21 -60 -4 -16 -12
-41 -19 -55 -28 -56 -55 -118 -55 -125 0 -4 -22 -53 -49 -109 -136 -282 -191
-389 -234 -456 -13 -19 -28 -46 -35 -60 -7 -14 -23 -43 -37 -65 -13 -22 -27
-47 -31 -55 -4 -8 -10 -17 -13 -20 -7 -6 -28 -42 -49 -82 -7 -16 -17 -28 -20
-28 -4 0 -13 -12 -19 -28 -7 -15 -24 -39 -38 -54 -14 -15 -25 -30 -25 -34 0
-4 -11 -22 -25 -40 -14 -18 -25 -36 -25 -39 0 -4 -23 -35 -50 -70 -28 -35 -50
-66 -50 -70 0 -3 -22 -32 -50 -64 -27 -32 -50 -61 -50 -66 0 -4 -40 -53 -88
-109 -145 -166 -113 -153 58 24 88 91 160 170 160 176 0 7 16 26 35 43 19 17
35 33 35 35 0 3 18 24 40 48 22 24 40 48 40 53 0 6 9 16 20 23 11 7 20 17 20
23 0 6 23 36 50 68 28 32 50 61 50 65 0 5 23 36 51 69 28 34 54 68 57 77 3 8
18 31 34 51 15 20 28 42 28 48 0 7 7 14 15 17 8 4 15 10 15 16 0 5 11 24 25
42 14 18 25 36 25 40 0 5 10 22 23 39 12 18 27 41 33 52 7 11 23 40 38 65 14
25 31 56 38 70 7 14 16 27 20 30 8 6 69 118 98 180 11 25 25 52 30 60 5 8 21
40 36 70 14 30 44 91 65 135 22 44 39 88 39 97 0 9 3 18 8 20 10 4 52 92 52
109 1 8 9 32 20 54 11 22 19 45 20 52 0 6 6 24 14 40 32 65 46 100 52 128 4
17 10 35 14 40 4 6 13 33 20 60 7 28 16 55 20 60 4 6 11 26 15 45 4 19 11 40
15 45 4 6 13 38 20 73 7 34 16 62 20 62 4 0 10 23 14 50 4 28 10 50 15 50 4 0
14 41 21 90 7 50 16 90 20 90 4 0 11 26 15 57 4 32 11 63 16 68 4 6 13 53 20
105 6 52 15 100 19 105 4 6 11 46 15 90 3 44 10 89 15 100 9 22 30 235 30 312
0 27 6 55 12 61 18 18 19 905 1 923 -7 7 -13 36 -13 64 0 81 -21 309 -30 326
-4 8 -11 51 -15 95 -4 43 -11 84 -16 89 -4 6 -13 53 -20 105 -6 52 -15 100
-19 105 -4 6 -10 35 -14 65 -4 30 -11 59 -15 65 -5 5 -14 42 -21 80 -7 39 -16
75 -20 80 -5 6 -11 28 -15 50 -4 22 -11 45 -15 50 -4 6 -12 37 -19 70 -7 33
-17 65 -21 70 -5 6 -11 28 -15 50 -4 22 -11 45 -15 50 -3 6 -13 30 -20 55 -7
25 -17 50 -21 55 -4 6 -10 27 -14 48 -4 20 -11 40 -16 43 -5 2 -13 24 -19 47
-10 39 -24 74 -55 137 -7 14 -16 40 -20 58 -3 17 -10 32 -15 32 -4 0 -11 12
-14 28 -7 29 -40 99 -131 282 -57 114 -81 161 -97 190 -4 8 -13 26 -19 40 -6
14 -20 38 -33 55 -12 16 -28 46 -36 65 -8 19 -17 37 -20 40 -6 5 -27 37 -104
166 -16 27 -42 65 -58 85 -15 20 -28 40 -28 44 0 4 -13 24 -30 45 -16 21 -30
43 -30 49 0 6 -9 16 -20 23 -11 7 -20 17 -20 22 0 5 -16 28 -35 52 -19 23 -35
45 -35 49 0 4 -18 29 -40 55 -22 26 -40 51 -40 54 0 4 -13 20 -30 36 -16 16
-30 32 -30 36 0 4 -34 44 -75 89 -41 46 -75 88 -75 94 0 16 -556 571 -572 571
-18 0 -78 61 -78 79 0 13 -39 50 -54 51 -4 0 -31 18 -60 40 -28 22 -55 43 -61
47 -5 5 -21 14 -35 20 -34 17 -58 33 -104 67 -54 42 -155 106 -165 106 -5 0
-14 7 -21 15 -10 12 -137 100 -202 140 -9 5 -53 34 -97 64 -91 61 -93 61 -273
154 -73 38 -140 72 -148 76 -16 9 -134 65 -211 100 -25 12 -54 21 -63 21 -9 0
-16 4 -16 8 0 4 -17 14 -37 21 -21 7 -47 16 -58 21 -85 37 -114 49 -142 55
-18 3 -35 11 -38 16 -4 5 -13 9 -21 9 -8 0 -34 9 -57 19 -23 11 -59 22 -80 26
-20 4 -39 11 -42 15 -3 5 -24 11 -48 15 -23 4 -51 14 -62 21 -11 8 -31 14 -45
14 -14 0 -37 6 -51 14 -14 7 -47 16 -72 20 -25 4 -59 13 -74 21 -15 7 -53 16
-83 20 -30 4 -59 11 -65 15 -5 4 -34 11 -62 15 -29 4 -55 10 -58 15 -3 4 -51
13 -107 20 -57 7 -107 16 -113 20 -5 4 -44 11 -85 15 -41 4 -79 11 -85 15 -5
4 -91 13 -190 20 -99 6 -187 16 -196 20 -19 10 -577 19 -769 13z m590 -822 c0
-12 -50 -44 -57 -37 -9 8 27 46 44 46 7 0 13 -4 13 -9z m305 -88 c-16 -3 -33
-10 -37 -16 -4 -6 -10 -8 -15 -4 -12 12 19 27 52 25 l30 -1 -30 -4z m-105 -33
c-14 -4 -37 -8 -52 -9 -16 -1 -28 -5 -28 -11 0 -5 -8 -10 -17 -10 -15 0 -13 4
7 20 17 13 40 19 70 19 37 -1 41 -2 20 -9z m-2055 -80 c17 -19 18 -22 2 -37
-15 -16 -18 -15 -37 2 -11 10 -20 26 -20 37 0 24 32 23 55 -2z m-275 -60 c47
-11 113 -40 118 -52 2 -5 9 -8 16 -8 15 0 66 -52 66 -67 0 -6 7 -13 15 -17 16
-6 21 -56 6 -56 -5 0 -14 7 -21 15 -7 8 -19 15 -26 15 -8 0 -14 5 -14 10 0 6
-5 10 -11 10 -6 0 -30 16 -53 35 -37 30 -51 35 -94 35 -47 0 -52 2 -58 25 -3
14 -12 25 -19 25 -17 0 -28 17 -20 30 8 13 37 12 95 0z m4000 -48 c-19 -11
-48 -22 -65 -26 -32 -7 -97 -37 -105 -48 -3 -3 -19 -10 -35 -14 -17 -3 -41
-13 -55 -20 -41 -22 -140 -64 -149 -64 -5 0 -11 -3 -13 -7 -1 -5 -46 -30 -98
-56 -188 -95 -276 -143 -309 -167 -34 -24 -69 -45 -121 -72 -21 -10 -155 -97
-206 -133 -18 -13 -48 5 -53 31 -2 10 -20 37 -40 60 -51 58 -71 83 -71 92 0 4
-15 25 -34 47 -31 36 -36 39 -57 28 -14 -7 -98 -14 -204 -17 -99 -3 -211 -8
-250 -11 -80 -7 -92 -1 -97 39 -3 26 1 30 32 38 19 5 49 16 67 24 17 7 37 14
45 14 8 0 18 4 23 8 6 5 37 15 70 22 33 7 65 16 70 20 6 4 28 11 50 15 22 4
45 10 50 15 6 4 44 13 85 20 41 7 80 16 85 20 6 4 30 11 55 15 25 4 50 11 55
15 6 4 53 13 105 20 52 7 100 17 105 21 6 4 42 11 80 15 39 4 72 10 75 14 3 4
82 13 175 20 94 6 179 16 190 21 23 10 114 14 390 17 l190 2 -35 -18z m-4365
-83 c10 -30 -28 -65 -127 -117 -33 -17 -39 -18 -50 -5 -15 19 1 47 30 51 11 2
26 10 32 18 7 8 19 14 27 14 8 0 11 5 8 10 -3 6 -22 10 -41 10 -19 0 -34 5
-34 10 0 6 27 10 60 10 33 0 60 4 60 10 0 19 29 10 35 -11z m786 -9 c12 0 19
-7 19 -20 0 -25 -26 -26 -52 -3 -22 20 -24 37 -2 29 9 -3 24 -6 35 -6z m-1053
-42 c18 -18 15 -28 -8 -28 -13 0 -20 7 -20 20 0 23 10 26 28 8z m1693 -19 c16
-11 26 -25 23 -31 -4 -5 -9 -6 -13 -2 -3 5 -15 14 -25 20 -20 10 -34 34 -21
34 4 0 20 -9 36 -21z m-1143 -26 c-5 -26 -38 -29 -38 -4 0 15 6 21 21 21 14 0
19 -5 17 -17z m-685 -72 c-18 -42 -24 -45 -84 -42 -31 2 -40 -3 -72 -42 -36
-44 -38 -45 -92 -44 -30 1 -55 5 -55 9 0 11 102 98 115 98 7 0 18 6 24 14 6 7
31 16 56 19 24 4 61 16 82 27 21 11 39 16 41 11 2 -5 -5 -27 -15 -50z m1577
49 c0 -12 -28 -25 -36 -17 -9 9 6 27 22 27 8 0 14 -5 14 -10z m-1392 -47 c-5
-26 -38 -29 -38 -4 0 15 6 21 21 21 14 0 19 -5 17 -17z m1068 -32 c5 -5 51
-14 102 -20 102 -13 124 -22 143 -61 25 -48 51 -70 86 -70 43 0 42 -13 -3 -35
-56 -26 -144 2 -144 46 0 11 -4 19 -10 19 -5 0 -10 6 -10 13 0 25 -36 47 -86
53 -65 7 -125 31 -132 52 -4 14 39 16 54 3z m-281 -21 c8 0 30 -14 50 -31 32
-28 36 -37 33 -73 -3 -41 -3 -41 -42 -40 -26 1 -45 8 -55 21 -9 11 -24 23 -33
26 -15 5 -56 74 -47 80 18 13 57 25 67 21 8 -2 20 -4 27 -4z m-475 -15 c0 -8
14 -30 31 -50 23 -26 39 -35 62 -35 29 0 30 0 12 -20 -10 -11 -34 -22 -54 -25
-20 -4 -43 -10 -51 -14 -9 -5 -36 -12 -60 -16 -25 -4 -50 -11 -56 -16 -14 -11
-154 -32 -162 -24 -4 4 1 11 11 16 23 13 22 46 -2 59 -26 13 -104 13 -118 -1
-6 -6 -21 -9 -34 -7 -20 2 -25 10 -27 41 -2 21 2 45 9 53 13 15 65 19 73 5 3
-4 27 -11 53 -15 27 -3 75 -20 107 -36 78 -40 136 -41 154 -3 6 15 12 44 12
65 0 31 4 38 20 38 11 0 20 -7 20 -15z m290 0 c0 -16 -27 -32 -37 -21 -7 7 16
36 28 36 5 0 9 -7 9 -15z m-870 -75 c0 -13 -7 -20 -20 -20 -23 0 -26 10 -8 28
18 18 28 15 28 -8z m1250 0 c0 -11 -7 -20 -15 -20 -18 0 -19 12 -3 28 16 16
18 15 18 -8z m-320 -5 c7 -8 10 -22 6 -30 -7 -20 -36 -19 -36 0 0 9 -7 18 -15
21 -8 4 -12 10 -9 15 8 14 40 11 54 -6z m-110 -45 c0 -5 -7 -10 -15 -10 -8 0
-15 5 -15 10 0 6 7 10 15 10 8 0 15 -4 15 -10z m577 -6 c3 -9 -3 -24 -14 -36
-20 -19 -22 -19 -47 -3 -43 29 -33 55 21 55 21 0 36 -6 40 -16z m-1424 -107
c9 -1 17 -4 17 -8 0 -3 23 -9 51 -11 60 -6 92 -31 82 -66 -4 -16 -11 -21 -23
-17 -22 7 -105 -36 -145 -76 -17 -16 -39 -29 -48 -29 -9 0 -17 -5 -17 -11 0
-23 -30 14 -56 70 -15 31 -35 67 -45 80 -11 13 -19 37 -19 54 l0 30 93 -8 c50
-4 100 -8 110 -8z m1243 -75 c-5 -40 -3 -54 14 -75 22 -28 26 -47 9 -47 -6 0
-30 -16 -53 -35 -47 -38 -67 -43 -86 -20 -6 8 -21 17 -32 21 -20 6 -39 23 -67
58 -13 16 -12 17 10 11 14 -3 32 0 44 9 17 13 18 18 7 36 -17 28 -2 47 44 56
19 3 34 10 34 14 0 10 24 17 59 19 23 1 23 -1 17 -47z m213 14 c-35 -27 -45
-30 -48 -18 -4 21 35 52 66 52 24 0 22 -3 -18 -34z m-1665 -98 c9 -20 16 -42
16 -50 0 -7 7 -24 16 -37 15 -21 15 -24 1 -39 -14 -14 -20 -14 -44 -2 -15 8
-45 30 -65 49 l-37 34 29 34 c24 27 30 43 30 81 l0 47 19 -40 c11 -22 26 -56
35 -77z m991 80 c-4 -13 -11 -27 -16 -32 -12 -14 -11 -86 1 -86 6 0 10 -8 10
-19 0 -22 42 -103 67 -128 25 -25 68 -43 103 -43 17 0 30 -2 30 -5 0 -2 -20
-25 -43 -50 -40 -41 -47 -45 -78 -39 -19 4 -40 11 -47 17 -19 15 -144 14 -178
-2 -101 -47 -157 -61 -239 -61 -52 0 -93 12 -140 42 -11 7 -32 21 -47 31 -14
9 -33 17 -42 17 -15 0 -24 20 -8 20 126 4 220 14 231 25 17 16 8 43 -16 51
-10 3 -26 10 -35 15 -24 12 -155 12 -163 -1 -8 -12 -45 -13 -45 -1 0 5 -9 11
-20 14 -11 3 -23 13 -26 24 -3 10 -10 26 -15 35 -14 27 -11 58 6 58 9 0 18 7
21 15 4 8 12 15 19 15 7 0 18 7 25 15 7 8 20 15 30 15 9 0 29 9 43 20 14 11
30 20 36 20 14 0 14 -25 -1 -49 -9 -15 -9 -23 1 -35 18 -22 40 -20 68 6 20 18
26 20 48 10 35 -16 65 -15 65 2 0 21 20 30 33 17 6 -6 17 -11 24 -11 23 0 91
-50 96 -71 4 -16 12 -20 34 -17 25 3 28 7 31 43 4 46 20 67 69 90 20 10 38 26
40 36 3 10 12 19 20 19 10 0 12 -6 8 -22z m1615 -4 c21 -11 29 -19 20 -22 -8
-2 -24 -8 -35 -13 -12 -6 -45 -9 -75 -7 -57 3 -70 17 -56 55 8 20 95 13 146
-13z m-247 -65 c7 -60 31 -93 62 -85 22 6 85 -13 85 -26 0 -20 42 -5 71 27 31
33 38 35 94 35 69 0 91 -11 114 -60 26 -53 103 -71 191 -45 l25 8 -24 -26
c-31 -34 -18 -52 44 -60 24 -4 53 -10 62 -15 10 -5 41 -20 68 -33 54 -27 71
-63 41 -89 -22 -17 -20 -40 6 -67 l22 -24 -34 -32 c-120 -112 -131 -120 -142
-109 -7 7 -35 12 -64 12 -51 0 -51 0 -57 35 -8 50 -44 97 -68 90 -16 -6 -18
-2 -13 25 9 41 -15 66 -71 75 -25 3 -47 10 -50 14 -2 5 -21 12 -41 16 -20 3
-46 12 -58 20 -12 7 -46 16 -76 19 -30 4 -59 11 -65 16 -5 5 -117 12 -247 16
l-237 7 -31 32 -32 33 30 21 c17 11 33 21 38 21 4 0 21 10 38 23 54 41 55 41
72 0 22 -53 43 -73 76 -73 32 0 35 14 13 56 -8 16 -15 41 -15 55 0 30 34 79
55 79 7 0 15 3 17 8 3 7 78 51 89 52 3 0 9 -23 12 -51z m3412 31 c3 -5 15 -10
25 -10 10 0 22 -5 25 -11 13 -19 -4 -22 -39 -5 -19 9 -39 16 -46 16 -6 0 -8 5
-5 10 3 6 12 10 20 10 8 0 17 -4 20 -10z m-5435 -8 c0 -11 -41 -34 -48 -27 -4
4 2 13 12 21 22 15 36 18 36 6z m1820 -104 c0 -16 -3 -19 -11 -11 -6 6 -8 16
-5 22 11 17 16 13 16 -11z m27 -84 c-3 -3 -12 -4 -19 -1 -8 3 -5 6 6 6 11 1
17 -2 13 -5z m-2522 -35 c0 -7 -8 -15 -17 -17 -18 -3 -25 18 -11 32 10 10 28
1 28 -15z m2127 -146 c10 -9 18 -24 18 -35 0 -10 4 -18 9 -18 5 0 11 -9 14
-20 8 -31 34 -24 74 20 56 63 95 42 108 -61 4 -30 16 -58 35 -80 l28 -34 36
34 c20 19 36 39 36 44 0 5 9 21 21 35 17 22 19 35 14 74 l-7 48 49 -1 c56 -1
126 -34 131 -63 2 -10 -2 -29 -9 -42 -10 -20 -9 -29 7 -59 10 -19 22 -35 27
-35 5 0 7 -12 5 -27 -5 -41 -93 -85 -186 -91 -40 -2 -75 -9 -78 -14 -13 -21
60 -100 110 -119 79 -30 114 -51 154 -92 60 -61 30 -75 -66 -30 l-33 16 -48
-47 c-43 -42 -91 -61 -91 -36 0 6 -6 10 -13 10 -8 0 -21 8 -30 18 -15 17 -15
19 4 36 19 16 21 26 17 93 -4 93 -15 103 -108 103 -117 0 -133 -39 -28 -70 28
-9 53 -20 55 -27 2 -6 -14 -25 -36 -42 -33 -26 -51 -32 -101 -35 -65 -4 -100
-24 -100 -56 0 -10 -7 -23 -15 -30 -8 -7 -15 -19 -15 -26 0 -8 -31 -47 -69
-86 -38 -40 -81 -95 -96 -122 -24 -42 -27 -57 -22 -104 6 -55 18 -73 65 -92
13 -6 34 -10 46 -10 24 0 36 -22 36 -67 0 -31 34 -63 65 -63 22 0 61 -16 75
-30 3 -3 16 -11 30 -18 14 -7 39 -21 55 -32 17 -11 41 -25 55 -32 14 -7 27
-15 30 -19 3 -3 29 -12 58 -19 45 -12 52 -17 52 -38 0 -13 -3 -22 -7 -20 -5 2
-21 10 -38 17 -16 7 -80 38 -142 67 -61 30 -116 54 -121 54 -6 0 -12 3 -14 8
-1 4 -46 29 -98 55 -52 26 -113 59 -135 72 -22 13 -47 27 -55 31 -8 4 -17 10
-20 13 -3 4 -16 12 -30 19 -14 7 -38 21 -55 32 -16 11 -45 27 -62 35 -18 8
-33 20 -33 25 0 6 -5 10 -11 10 -6 0 -30 16 -53 35 -24 19 -46 35 -50 35 -9 0
-120 82 -124 92 -2 4 -8 8 -14 8 -6 0 -39 25 -73 55 -35 30 -67 55 -73 55 -5
0 -15 6 -21 14 -10 12 10 37 114 138 70 68 132 125 138 127 7 2 48 37 92 78
44 40 83 73 88 73 4 0 21 16 38 35 17 19 35 35 41 35 5 0 27 14 48 31 32 26
42 30 54 20 21 -17 50 4 76 55 42 81 130 126 172 87z m719 -27 c-27 -12 -38
-1 -21 19 10 12 16 13 27 3 13 -11 12 -14 -6 -22z m1557 16 c3 -9 -2 -13 -14
-10 -9 1 -19 9 -22 16 -3 9 2 13 14 10 9 -1 19 -9 22 -16z m-3682 -31 c22 -18
23 -19 5 -35 -24 -22 -25 -21 -55 19 l-27 35 26 0 c15 0 38 -8 51 -19z m-956
0 c0 -5 -8 -11 -17 -14 -10 -2 -27 -8 -38 -13 -16 -6 -15 -3 5 14 26 22 50 28
50 13z m1536 -42 c18 -20 17 -21 -51 -89 -71 -71 -95 -84 -95 -52 0 37 13 61
36 66 44 11 56 76 13 76 -10 0 -19 5 -19 10 0 6 22 10 48 10 37 0 54 -5 68
-21z m-126 -19 c24 -19 24 -20 4 -20 -11 0 -29 9 -39 20 -24 27 1 27 35 0z
m1710 -10 c0 -12 -28 -25 -36 -17 -9 9 6 27 22 27 8 0 14 -5 14 -10z m170 -50
c0 -28 -3 -30 -35 -30 -43 0 -47 23 -7 43 39 21 42 20 42 -13z m-2024 -25 c11
-11 28 -33 39 -50 10 -16 24 -33 31 -37 16 -10 -4 -58 -24 -58 -8 0 -16 -9
-19 -20 -3 -11 -11 -20 -18 -20 -7 0 -15 -9 -18 -20 -3 -12 -14 -20 -25 -20
-21 0 -52 24 -52 41 0 5 -7 9 -15 9 -8 0 -15 5 -15 11 0 7 -34 47 -75 90 -41
43 -75 84 -75 90 0 8 37 10 123 8 106 -4 125 -7 143 -24z m2334 -100 c0 -21
-27 -30 -45 -15 -19 16 -10 30 21 30 15 0 24 -6 24 -15z m-82 -21 c38 -11 25
-45 -46 -122 -63 -68 -93 -85 -107 -62 -8 12 -48 13 -60 1 -6 -4 -31 -11 -56
-14 -37 -5 -50 -3 -63 12 -15 16 -15 19 5 37 17 15 40 20 110 22 49 2 89 8 89
13 0 5 7 9 15 9 8 0 15 4 15 9 0 5 -7 14 -15 21 -19 15 -20 40 -2 40 8 0 22 9
32 20 18 20 43 24 83 14z m3379 -42 c38 -46 41 -80 8 -97 -11 -5 -34 -19 -50
-31 -17 -12 -52 -26 -80 -33 -27 -7 -56 -18 -64 -24 -8 -7 -48 -12 -96 -12
l-83 0 -51 53 c-48 48 -50 52 -28 52 14 0 30 7 37 15 7 8 20 15 30 15 10 0 34
18 54 40 30 33 42 40 74 40 21 0 42 4 48 9 8 9 86 17 143 15 15 0 36 -16 58
-42z m-433 3 c-21 -16 -74 -20 -74 -6 0 11 23 18 64 20 28 1 29 0 10 -14z
m-2544 -221 c0 -8 5 -23 12 -34 10 -15 9 -23 -6 -39 -11 -12 -27 -21 -36 -21
-9 0 -21 -5 -28 -12 -9 -9 -7 -17 10 -35 15 -16 17 -23 7 -23 -18 0 -86 24
-95 33 -4 4 -15 7 -25 7 -24 0 -33 18 -18 36 10 12 24 14 61 9 54 -8 64 7 28
40 -20 19 -20 19 17 57 l38 39 18 -22 c9 -11 17 -28 17 -35z m-660 -29 c0 -9
-9 -15 -21 -15 -18 0 -19 2 -9 15 7 8 16 15 21 15 5 0 9 -7 9 -15z m-92 -27
c-3 -7 -13 -13 -23 -13 -10 0 -20 6 -22 13 -3 7 5 12 22 12 17 0 25 -5 23 -12z
m-272 -60 c9 -14 -34 -50 -55 -46 -24 5 -19 31 9 45 31 16 37 16 46 1z m179
-9 c10 -15 -3 -56 -20 -63 -17 -6 -31 34 -21 59 6 17 32 20 41 4z m4305 -40
c0 -9 -6 -22 -14 -29 -8 -6 -16 -23 -18 -38 -4 -32 -38 -45 -38 -14 0 11 7 25
15 32 9 8 13 21 9 32 -8 25 25 65 38 46 4 -7 8 -20 8 -29z m-5938 -134 c40
-35 88 -78 106 -95 18 -16 35 -30 39 -30 3 0 34 -25 68 -55 35 -30 66 -55 70
-55 4 0 26 -16 49 -35 24 -19 48 -35 55 -35 6 0 14 -7 17 -15 4 -8 12 -15 18
-15 7 0 30 -15 52 -32 39 -33 65 -50 117 -76 15 -7 27 -17 27 -21 0 -3 12 -12
28 -19 15 -6 45 -23 67 -36 22 -14 51 -30 65 -36 14 -6 38 -21 55 -34 16 -12
46 -28 65 -36 19 -8 37 -16 40 -20 8 -9 118 -60 129 -60 6 0 11 -4 11 -10 0
-5 8 -10 17 -10 36 0 70 -58 43 -75 -5 -3 -23 -35 -41 -70 -17 -36 -35 -65
-40 -65 -4 0 -10 -14 -14 -30 -6 -29 -76 -172 -94 -194 -5 -6 -13 -24 -17 -40
-4 -16 -13 -41 -20 -55 -8 -14 -14 -30 -14 -35 0 -8 -28 -72 -55 -126 -7 -14
-16 -40 -20 -57 -3 -18 -11 -33 -16 -33 -5 0 -9 -8 -9 -17 0 -10 -6 -29 -13
-43 -7 -14 -19 -47 -27 -75 -8 -27 -20 -61 -27 -75 -7 -14 -13 -33 -13 -42 0
-10 -4 -18 -10 -18 -5 0 -10 -10 -10 -21 0 -25 -20 -99 -31 -114 -4 -5 -10
-28 -14 -50 -4 -22 -11 -44 -15 -50 -5 -5 -14 -38 -20 -72 -7 -35 -18 -68 -26
-74 -13 -10 -43 -1 -117 37 -16 8 -33 14 -38 14 -15 0 -123 54 -127 63 -2 4
-8 7 -13 7 -11 0 -113 45 -169 76 -25 13 -57 30 -72 36 -16 7 -28 16 -28 20 0
4 -5 8 -11 8 -15 0 -123 53 -127 63 -2 4 -18 14 -35 22 -18 8 -50 26 -72 40
-22 14 -48 28 -57 32 -10 3 -18 9 -18 14 0 5 -5 9 -11 9 -6 0 -30 16 -53 35
-24 19 -46 35 -50 35 -4 0 -22 11 -40 25 -18 14 -36 25 -39 25 -4 0 -15 8 -25
18 -17 16 -97 75 -131 97 -9 6 -39 29 -68 53 -28 23 -54 42 -57 42 -3 0 -28
23 -55 50 -27 28 -53 50 -58 50 -5 0 -31 23 -58 50 -27 28 -44 50 -37 50 7 0
12 10 12 22 l0 21 23 -20 c12 -11 30 -18 41 -15 16 3 18 12 14 64 -2 33 -10
63 -17 67 -9 6 -7 16 8 42 12 19 28 49 36 67 8 17 20 32 25 32 6 0 10 5 10 11
0 6 11 25 25 43 14 18 25 36 25 40 0 4 16 28 35 53 19 25 35 50 35 56 0 5 16
29 35 53 19 23 35 46 35 50 0 4 16 26 35 50 19 23 35 45 35 48 0 3 8 14 18 25
31 33 112 138 112 146 0 6 119 144 191 221 16 17 29 36 29 43 0 6 7 11 15 11
8 0 15 5 15 12 0 13 89 108 101 108 4 0 40 -29 81 -65z m2189 16 c2 -28 -2
-46 -17 -62 -25 -28 -16 -58 33 -110 l47 -50 55 7 c31 4 58 11 59 15 2 5 10 9
18 9 8 0 37 21 64 46 43 40 51 44 68 33 13 -8 22 -28 26 -61 4 -26 11 -48 15
-48 5 0 11 -10 15 -22 3 -13 19 -37 35 -54 16 -17 33 -48 37 -69 8 -44 58
-105 85 -105 10 0 19 -4 19 -10 0 -5 6 -10 14 -10 14 0 43 -14 84 -40 27 -18
29 -40 2 -40 -11 0 -38 -16 -60 -36 -39 -36 -40 -37 -23 -56 14 -16 26 -19 57
-13 22 3 45 10 51 14 5 5 27 11 47 15 57 10 78 -16 78 -99 0 -63 -1 -64 -32
-79 -18 -8 -58 -20 -88 -27 -30 -6 -58 -16 -61 -21 -3 -5 -26 -12 -50 -15 -24
-3 -46 -10 -49 -14 -9 -14 -385 -16 -401 -2 -8 7 -35 15 -59 19 -25 4 -49 10
-55 14 -5 4 -43 12 -82 19 -40 7 -73 16 -73 21 0 4 -22 10 -50 14 -27 4 -52
11 -55 16 -3 5 -31 14 -63 21 -31 7 -61 16 -66 21 -6 4 -17 8 -25 8 -29 0
-106 45 -109 64 -2 10 1 28 6 40 6 11 13 39 16 61 8 56 77 189 131 251 25 29
45 57 45 62 0 5 16 22 35 38 19 16 35 33 35 39 0 5 45 58 100 117 78 83 104
105 120 101 11 -3 21 -13 21 -22z m4083 1 c15 -18 15 -20 -2 -36 -35 -30 -73
9 -40 42 16 16 22 15 42 -6z m-3950 -31 c3 -5 0 -11 -8 -14 -15 -6 -26 1 -26
15 0 11 27 10 34 -1z m3812 -133 c-9 -13 -20 -33 -25 -45 -6 -11 -15 -24 -20
-28 -6 -3 -11 -17 -11 -29 0 -27 27 -38 71 -29 23 4 29 2 29 -11 0 -9 -8 -19
-17 -23 -10 -3 -34 -19 -54 -35 -20 -15 -40 -28 -45 -28 -4 0 -16 -7 -26 -16
-16 -16 -18 -15 -25 2 -5 11 -8 45 -8 77 0 45 4 61 18 68 9 6 17 15 17 22 0
16 81 97 98 97 12 0 11 -4 -2 -22z m-201 -39 c0 -7 -8 -15 -17 -17 -18 -3 -25
18 -11 32 10 10 28 1 28 -15z m-8535 -24 c0 -17 -105 -125 -121 -125 -13 0
-39 25 -39 38 0 15 69 72 104 88 41 17 56 17 56 -1z m8534 -64 c7 -10 -22 -37
-30 -28 -9 8 3 37 15 37 5 0 12 -4 15 -9z m-8674 -108 c0 -20 -27 -28 -45 -13
-14 11 -14 15 1 31 13 14 20 16 31 8 7 -6 13 -18 13 -26z m8880 -4 c0 -6 32
-45 70 -86 39 -41 73 -87 76 -102 4 -14 10 -30 14 -36 4 -5 11 -25 15 -43 5
-24 15 -36 41 -47 30 -12 34 -18 34 -52 0 -65 -52 -93 -170 -93 -44 0 -80 -4
-80 -9 0 -5 -25 -11 -55 -13 -59 -3 -78 14 -27 27 37 9 62 34 62 62 0 19 -5
23 -28 23 -15 0 -33 5 -39 11 -12 12 -6 49 8 49 5 0 9 7 9 15 0 8 5 15 12 15
27 0 58 43 58 81 0 43 -44 99 -78 99 -12 0 -24 5 -28 11 -8 14 15 59 31 59 7
0 20 9 30 20 20 22 45 27 45 9z m-7633 -68 c-4 -27 -17 -40 -32 -34 -18 6 -19
27 -3 53 14 22 39 9 35 -19z m-1292 10 c0 -22 -32 -38 -46 -24 -9 9 -9 16 1
28 15 19 45 16 45 -4z m8652 -47 c-3 -3 -12 -4 -19 -1 -8 3 -5 6 6 6 11 1 17
-2 13 -5z m93 -80 c0 -18 -4 -36 -10 -39 -5 -3 -10 -16 -10 -29 0 -28 -20 -46
-85 -77 -27 -13 -52 -27 -55 -30 -3 -4 -14 -9 -26 -13 -24 -7 -53 17 -34 29 5
3 10 17 10 30 0 13 5 27 10 30 6 3 10 17 10 31 0 14 6 24 14 24 8 0 16 3 18 8
3 8 77 60 110 79 30 16 48 0 48 -43z m-4485 -314 c3 -6 26 -15 51 -21 24 -6
44 -15 44 -19 0 -4 17 -11 38 -15 20 -4 42 -10 47 -15 6 -4 36 -13 68 -20 31
-7 57 -16 57 -20 0 -4 17 -11 38 -15 20 -4 42 -10 47 -15 6 -4 37 -14 70 -21
33 -7 65 -16 70 -20 6 -5 30 -11 53 -15 23 -4 45 -11 48 -15 3 -5 14 -9 24 -9
11 0 28 -10 39 -22 17 -18 33 -22 93 -23 40 -1 82 -6 93 -13 11 -6 42 -16 69
-22 27 -6 63 -22 81 -36 18 -13 39 -22 47 -19 8 3 23 -7 36 -25 22 -30 55 -39
67 -20 3 6 21 17 38 26 l32 16 -40 -41 c-21 -22 -45 -41 -53 -41 -19 0 -68
-28 -119 -67 -46 -37 -76 -44 -66 -15 8 23 64 82 78 82 6 0 20 6 30 14 17 12
18 15 3 30 -18 18 -49 21 -76 7 -57 -29 -133 -61 -146 -61 -8 0 -17 -4 -20 -9
-4 -5 -24 -12 -46 -16 -22 -4 -40 -11 -40 -16 0 -5 -5 -9 -12 -9 -16 0 -68
-51 -68 -67 0 -7 -4 -13 -10 -13 -14 0 -12 -56 2 -80 20 -32 -1 -54 -57 -61
-44 -5 -54 -11 -107 -68 -31 -35 -60 -73 -64 -84 -4 -12 -13 -32 -21 -44 l-15
-22 -22 26 c-37 43 -56 26 -56 -49 0 -35 4 -79 10 -98 13 -47 -8 -121 -38
-135 -12 -5 -22 -16 -22 -23 0 -7 -20 -35 -45 -61 -25 -26 -45 -51 -45 -54 0
-4 -29 -35 -65 -69 -36 -35 -65 -68 -65 -74 0 -6 -7 -17 -15 -24 -8 -7 -15
-24 -15 -38 0 -24 -1 -25 -57 -18 -31 4 -61 11 -67 15 -6 5 -29 12 -51 16 -22
4 -44 11 -50 15 -5 4 -39 13 -75 20 -36 7 -69 16 -75 20 -5 4 -25 11 -43 15
-18 4 -45 13 -60 21 -15 8 -38 14 -52 14 -14 0 -43 9 -65 20 -22 11 -47 20
-55 20 -21 1 -53 27 -42 34 6 3 16 30 22 58 7 29 16 58 20 63 4 6 11 26 15 45
4 19 13 44 21 55 7 11 16 37 19 58 4 20 11 37 15 37 4 0 11 12 14 28 4 15 13
41 20 57 8 17 23 51 35 76 12 25 21 50 21 55 0 5 9 27 19 49 11 22 43 88 71
148 29 59 56 105 61 101 5 -3 9 -41 9 -84 0 -43 4 -81 8 -84 17 -10 32 12 38
60 4 27 10 54 14 59 5 6 11 27 15 48 4 20 20 55 36 77 24 34 35 40 64 40 29 0
37 -5 45 -26 6 -14 7 -36 4 -50 -5 -18 -1 -26 12 -30 27 -10 64 -45 64 -61 0
-7 7 -13 15 -13 8 0 15 6 15 13 0 20 39 97 49 97 13 0 21 27 15 45 -3 8 -21
17 -40 21 -19 3 -36 10 -39 14 -3 5 -31 12 -63 15 -56 7 -102 34 -102 61 0 6
-7 17 -15 24 -22 18 -18 46 13 93 48 74 52 81 67 115 9 17 19 32 24 32 5 0 12
14 16 30 7 30 36 42 50 20z m1535 -33 c0 -8 -9 -22 -20 -32 -31 -28 -24 -35
38 -35 52 0 61 -3 88 -31 l29 -32 -95 7 c-52 4 -99 11 -104 17 -6 5 -22 9 -37
9 -15 0 -30 4 -33 8 -7 11 41 58 85 82 41 23 49 24 49 7z m-1726 -338 c-3 -5
-14 -9 -24 -9 -10 0 -22 -4 -25 -10 -8 -12 -25 -13 -25 -1 0 4 10 20 21 35 20
26 22 26 40 10 10 -9 16 -21 13 -25z m-2179 -259 c44 -44 83 -80 88 -80 4 0
47 -34 95 -75 48 -41 95 -82 105 -90 9 -8 20 -15 23 -15 3 0 28 -18 54 -40 26
-22 51 -40 55 -40 4 0 26 -16 49 -35 24 -19 48 -35 55 -35 6 0 11 -4 11 -10 0
-5 5 -10 11 -10 6 0 25 -10 42 -22 36 -26 62 -42 97 -60 14 -7 27 -15 30 -18
10 -10 85 -56 125 -75 22 -11 42 -22 45 -25 19 -19 356 -188 391 -195 16 -4
29 -10 29 -15 0 -4 12 -11 28 -14 72 -17 120 -53 93 -70 -5 -3 -12 -39 -16
-78 -4 -40 -11 -77 -15 -83 -4 -5 -13 -62 -20 -125 -6 -63 -16 -123 -21 -132
-5 -9 -11 -61 -15 -115 -4 -54 -10 -102 -14 -108 -5 -5 -11 -82 -15 -171 l-7
-161 -42 22 c-23 12 -53 26 -67 30 -13 4 -40 21 -60 36 -20 16 -41 29 -45 29
-5 0 -29 18 -53 38 -42 37 -43 40 -45 102 -2 53 -8 73 -32 109 -16 24 -33 51
-39 60 -5 10 -31 42 -56 72 -25 29 -49 62 -52 72 -4 9 -11 17 -17 17 -5 0 -10
8 -10 19 0 10 -7 24 -15 31 -8 7 -15 17 -15 22 0 6 -11 23 -25 40 -14 16 -25
36 -25 43 0 7 -4 15 -9 17 -14 5 -78 98 -101 148 -39 82 -45 92 -72 108 -26
16 -29 15 -49 -5 -18 -17 -20 -28 -14 -63 4 -23 13 -44 21 -47 8 -3 14 -12 14
-20 0 -14 42 -112 60 -143 5 -8 21 -39 36 -67 14 -29 29 -53 34 -53 4 0 11 -8
14 -17 4 -10 20 -40 36 -68 16 -27 32 -57 36 -67 3 -9 14 -18 25 -21 10 -3 19
-10 19 -16 0 -16 -26 -13 -40 4 -7 8 -17 15 -23 15 -13 0 -57 40 -57 53 0 5
-9 20 -20 34 -11 14 -20 34 -20 44 0 10 -27 47 -60 82 -59 63 -74 99 -50 123
6 6 0 22 -18 44 -15 19 -40 62 -56 95 -15 33 -31 67 -36 75 -4 9 -11 31 -15
49 -10 48 -41 95 -71 111 -14 8 -41 29 -61 47 -19 18 -40 33 -47 33 -13 0 -66
51 -66 64 0 4 -13 24 -28 44 -16 20 -35 57 -42 82 -18 66 -32 91 -55 100 -29
11 -41 29 -50 70 -4 19 -12 41 -19 49 -13 17 -22 331 -9 331 5 0 44 -36 88
-80z m7773 -32 c-2 -17 -11 -24 -30 -26 -24 -3 -28 0 -28 22 0 22 4 26 31 26
26 0 30 -3 27 -22z m-8 -142 c20 -26 8 -61 -22 -64 -25 -3 -28 0 -28 25 0 27
15 53 31 53 4 0 12 -7 19 -14z m-264 -45 c-4 -6 -15 -11 -24 -11 -10 0 -28 -7
-41 -16 -22 -16 -22 -16 -19 12 2 24 9 30 38 35 38 6 56 -3 46 -20z m-176 -92
c0 -18 -2 -19 -15 -9 -8 7 -15 16 -15 21 0 5 7 9 15 9 9 0 15 -9 15 -21z m788
-71 c17 -17 15 -58 -4 -65 -18 -7 -80 12 -108 32 -16 12 -17 17 -6 30 15 18
100 21 118 3z m-172 -79 c3 -6 -1 -18 -9 -27 -13 -13 -19 -13 -32 -2 -12 10
-13 16 -4 26 14 17 35 18 45 3z m112 -106 c-2 -10 -10 -18 -18 -18 -8 0 -16 8
-18 18 -2 12 3 17 18 17 15 0 20 -5 18 -17z m-101 -40 c-3 -3 -11 -2 -17 2 -8
5 -7 11 2 22 12 15 13 14 16 -1 2 -10 1 -20 -1 -23z m-4557 -183 c0 -5 -6 -10
-14 -10 -8 0 -18 5 -21 10 -3 6 3 10 14 10 12 0 21 -4 21 -10z m2830 -26 c0
-16 -16 -19 -25 -4 -8 13 4 32 16 25 5 -4 9 -13 9 -21z m-4517 -184 c31 -7 57
-17 57 -21 0 -4 6 -9 13 -12 6 -2 -1 -2 -18 1 -16 2 -31 8 -33 13 -5 12 -49
12 -56 0 -3 -5 -17 -11 -31 -13 -19 -4 -25 -1 -25 13 0 31 11 50 24 40 6 -5
37 -14 69 -21z m4467 -95 c0 -8 -4 -15 -10 -15 -5 0 -10 7 -10 15 0 8 5 15 10
15 6 0 10 -7 10 -15z m220 -24 c0 -14 -18 -23 -30 -16 -6 4 -8 11 -5 16 8 12
35 12 35 0z m-120 -15 c0 -2 -3 -12 -6 -20 -5 -13 -9 -14 -20 -5 -16 13 -9 29
12 29 8 0 14 -2 14 -4z m-100 -61 c0 -8 -4 -15 -9 -15 -13 0 -22 16 -14 24 11
11 23 6 23 -9z m-3699 -33 c12 -13 20 -80 10 -87 -23 -13 -61 8 -80 46 -30 57
-28 63 22 55 23 -4 45 -10 48 -14z m115 -98 c-5 -13 -10 -14 -18 -6 -6 6 -8
18 -4 28 5 13 10 14 18 6 6 -6 8 -18 4 -28z m119 17 c7 -12 -12 -24 -25 -16
-11 7 -4 25 10 25 5 0 11 -4 15 -9z m-73 -83 c-9 -9 -15 -9 -24 0 -9 9 -7 12
12 12 19 0 21 -3 12 -12z m126 0 c-6 -18 -28 -21 -28 -4 0 9 7 16 16 16 9 0
14 -5 12 -12z m-7 -68 c19 0 29 -5 29 -14 0 -21 -20 -30 -33 -17 -6 6 -21 11
-34 11 -14 0 -23 6 -23 16 0 11 5 14 16 10 9 -3 29 -6 45 -6z m-279 -45 c15
-7 41 -16 58 -20 16 -4 30 -10 30 -15 0 -5 15 -12 33 -15 17 -4 39 -13 47 -19
8 -7 35 -23 60 -35 45 -23 100 -68 100 -82 0 -15 -64 -39 -105 -39 -43 0 -65
13 -65 40 0 22 -27 45 -72 61 -21 7 -38 16 -38 20 0 4 -13 10 -30 14 -16 4
-30 10 -30 15 0 9 -79 30 -116 30 -26 0 -27 -1 -9 -20 18 -20 14 -56 -6 -44
-8 5 -8 8 0 14 16 9 -2 23 -51 41 -21 7 -38 16 -38 19 0 12 45 48 65 53 31 9
137 -3 167 -18z m408 -31 c0 -9 -7 -14 -17 -12 -25 5 -28 28 -4 28 12 0 21 -6
21 -16z m-5030 -8 c0 -18 -17 -29 -30 -21 -8 5 -7 11 1 21 15 18 29 18 29 0z
m5130 0 c0 -18 -17 -29 -30 -21 -8 5 -7 11 1 21 15 18 29 18 29 0z m-5032 -63
c-4 -20 -35 -30 -50 -15 -15 15 0 32 28 32 19 0 25 -5 22 -17z m4117 -65 c-4
-40 -11 -79 -15 -88 -3 -8 -14 -30 -24 -49 -9 -18 -19 -61 -23 -94 -8 -76 5
-87 93 -87 35 0 65 -4 68 -9 3 -5 26 -12 50 -15 69 -11 71 -19 68 -181 -3
-120 -1 -143 12 -154 9 -8 16 -19 16 -25 0 -7 18 -30 41 -51 37 -37 44 -40 91
-38 27 0 55 6 61 12 6 6 29 11 51 11 31 -1 50 -8 76 -30 l34 -30 -34 0 c-19 0
-44 7 -54 15 -25 19 -60 19 -76 0 -14 -17 -155 -22 -165 -5 -3 6 -14 10 -24
10 -19 0 -47 27 -66 63 -12 23 -21 24 -67 12 -28 -7 -28 -7 -28 43 0 43 -5 57
-40 100 -45 58 -99 102 -124 102 -10 0 -41 11 -69 24 -29 13 -59 26 -67 30 -8
3 -24 12 -35 18 -11 7 -38 24 -60 38 -22 14 -49 31 -60 38 -63 40 -105 49
-147 33 -22 -8 -102 0 -113 11 -8 7 17 242 26 253 5 5 9 20 9 35 l1 25 19 -24
c11 -13 20 -29 20 -35 0 -22 75 -85 108 -92 18 -4 35 -11 38 -15 7 -12 81 -12
88 0 3 4 23 11 44 15 50 7 69 29 77 90 8 53 38 96 66 96 10 0 21 5 24 10 3 6
31 10 62 10 l55 0 -7 -72z m851 35 c-11 -11 -17 4 -9 23 7 18 8 18 11 1 2 -10
1 -21 -2 -24z m-4866 -28 c5 -14 14 -25 19 -25 5 0 16 -12 26 -26 20 -30 6
-54 -31 -54 -21 0 -24 5 -24 39 0 22 -6 44 -15 51 -19 16 -19 40 0 40 9 0 20
-11 25 -25z m5021 -105 c29 -6 60 -17 68 -25 14 -13 11 -15 -21 -15 -20 0 -39
-4 -43 -9 -8 -14 -125 -23 -159 -13 -36 10 -44 28 -16 35 11 3 20 12 20 21 0
19 67 22 151 6z m249 -49 c0 -24 -40 -35 -59 -17 -19 20 -5 36 30 36 22 0 29
-5 29 -19z m-675 -7 c32 -21 22 -44 -20 -44 -42 0 -52 15 -29 41 21 23 19 23
49 3z m765 -39 c0 -8 -9 -15 -20 -15 -20 0 -26 11 -13 23 12 13 33 7 33 -8z
m-1203 -22 c4 -11 -26 -27 -35 -19 -2 3 -2 12 2 21 6 18 27 16 33 -2z m1298
-4 c0 -7 -8 -15 -17 -17 -18 -3 -25 18 -11 32 10 10 28 1 28 -15z m95 -23 c0
-16 -18 -31 -27 -22 -8 8 5 36 17 36 5 0 10 -6 10 -14z m2140 -51 c0 -8 -7
-15 -15 -15 -8 0 -15 7 -15 15 0 8 7 15 15 15 8 0 15 -7 15 -15z m140 -25 c0
-11 -7 -20 -15 -20 -15 0 -21 21 -8 33 12 13 23 7 23 -13z m-2280 -21 c0 -5
-7 -9 -15 -9 -15 0 -20 12 -9 23 8 8 24 -1 24 -14z m2191 -64 c0 -6 -10 -12
-23 -13 -19 -4 -20 -2 -9 12 15 17 33 18 32 1z m94 -5 c3 -5 -3 -10 -15 -10
-12 0 -18 5 -15 10 3 6 10 10 15 10 5 0 12 -4 15 -10z m-2265 -34 c0 -14 -4
-27 -9 -30 -5 -3 -7 -15 -4 -25 6 -23 -14 -38 -30 -22 -9 9 -8 19 6 42 9 17
17 37 17 45 0 8 5 14 10 14 6 0 10 -11 10 -24z m100 -91 c0 -9 -9 -15 -21 -15
-18 0 -19 2 -9 15 7 8 16 15 21 15 5 0 9 -7 9 -15z m-531 -32 c-15 -18 -34 -1
-25 22 5 14 9 15 21 5 12 -10 13 -16 4 -27z m96 -13 c0 -7 -6 -15 -12 -17 -8
-3 -13 4 -13 17 0 13 5 20 13 18 6 -3 12 -11 12 -18z m-322 -16 c3 -3 -6 -26
-19 -52 -13 -25 -20 -48 -16 -51 5 -3 13 -17 17 -31 9 -28 22 -40 48 -40 13 0
17 8 17 38 0 26 7 45 20 57 11 10 20 24 20 31 0 7 9 18 21 24 17 10 27 7 59
-15 25 -17 57 -28 94 -32 31 -3 61 -12 67 -19 9 -10 42 -14 131 -14 91 0 119
-3 116 -12 -3 -7 -31 -17 -64 -23 -32 -5 -64 -13 -69 -17 -6 -3 -44 -10 -85
-13 -41 -4 -80 -12 -86 -16 -6 -5 -91 -15 -188 -21 -97 -7 -176 -16 -176 -20
0 -4 -32 -8 -71 -8 l-71 0 7 29 c16 75 65 131 114 131 9 0 35 18 56 40 39 40
47 45 58 34z m617 -9 c0 -8 -9 -15 -20 -15 -11 0 -20 7 -20 15 0 8 9 15 20 15
11 0 20 -7 20 -15z m70 -70 c0 -9 -9 -15 -21 -15 -18 0 -19 2 -9 15 7 8 16 15
21 15 5 0 9 -7 9 -15z m-670 -36 c0 -18 -2 -19 -15 -9 -8 7 -15 16 -15 21 0 5
7 9 15 9 9 0 15 -9 15 -21z m735 -217 c79 -77 108 -92 170 -92 24 0 47 -4 50
-10 3 -5 16 -10 29 -10 12 0 31 -7 42 -15 10 -8 26 -15 35 -15 10 0 40 -25 68
-56 41 -44 51 -63 51 -90 0 -36 12 -64 44 -101 18 -22 18 -22 -37 -80 -64 -66
-114 -150 -98 -166 7 -7 24 -1 52 19 23 16 49 34 58 39 9 6 32 22 52 38 43 33
49 33 49 5 0 -26 -37 -68 -60 -68 -9 0 -25 -9 -35 -20 -27 -30 -5 -50 54 -50
42 0 51 4 91 46 78 80 114 79 205 -6 76 -71 92 -78 180 -85 44 -4 89 -10 100
-15 11 -5 37 -11 57 -15 25 -4 54 -21 92 -55 29 -28 57 -50 62 -50 4 0 25 -17
46 -37 34 -33 38 -42 38 -88 0 -28 -4 -55 -8 -60 -5 -6 -15 -29 -22 -52 -7
-24 -16 -43 -19 -43 -4 0 -12 -12 -18 -27 -16 -37 -30 -59 -75 -115 -21 -26
-38 -49 -38 -53 0 -3 -13 -18 -29 -33 l-29 -27 -7 -185 c-4 -102 -10 -187 -14
-190 -5 -3 -11 -24 -14 -47 -4 -23 -14 -56 -23 -75 -37 -74 -44 -90 -44 -101
0 -7 -15 -29 -33 -50 -28 -34 -38 -39 -89 -44 -32 -3 -58 -10 -58 -14 0 -5 -6
-9 -14 -9 -8 0 -27 -10 -43 -23 -15 -13 -49 -34 -75 -46 -27 -13 -48 -27 -48
-32 0 -5 -5 -9 -12 -9 -6 0 -33 -18 -59 -40 -26 -22 -51 -40 -56 -40 -16 0
-33 -52 -22 -66 20 -25 15 -125 -9 -176 -12 -26 -22 -52 -22 -57 0 -5 -3 -11
-7 -13 -5 -1 -21 -28 -37 -58 -16 -30 -37 -70 -47 -88 -9 -18 -29 -48 -43 -67
-14 -18 -26 -38 -26 -43 0 -4 -11 -19 -25 -32 -31 -29 -53 -42 -140 -82 -14
-6 -32 -3 -62 12 -23 11 -47 20 -53 20 -5 0 -10 5 -10 10 0 6 -9 10 -20 10
-33 0 -25 -45 16 -90 53 -59 68 -172 25 -187 -9 -3 -23 -12 -32 -20 -10 -8
-42 -17 -73 -20 -31 -3 -56 -9 -56 -13 0 -4 -21 -10 -47 -13 -26 -3 -49 -10
-51 -16 -2 -6 -10 -11 -18 -11 -8 0 -17 -13 -20 -30 -4 -16 -13 -35 -20 -41
-8 -6 -14 -17 -14 -25 0 -17 -55 -42 -100 -46 -31 -3 -35 -6 -38 -36 -2 -21 4
-41 17 -58 28 -35 27 -39 -14 -75 -28 -25 -35 -38 -35 -68 0 -62 -9 -79 -45
-85 -42 -8 -52 -21 -61 -75 -9 -58 26 -127 68 -136 31 -7 38 -35 13 -55 -8 -7
-15 -18 -15 -24 0 -6 -16 -24 -35 -40 -21 -18 -37 -42 -41 -61 -3 -18 -26 -56
-50 -86 -26 -32 -44 -64 -44 -79 0 -43 -10 -65 -33 -75 -12 -6 -29 -25 -38
-42 -34 -68 -69 -86 -69 -34 0 32 -34 81 -56 81 -8 0 -14 4 -14 10 0 5 -18 13
-41 16 l-41 7 7 51 c3 28 10 55 16 61 12 12 12 62 -1 70 -14 9 -12 61 3 73 6
5 21 11 32 14 14 2 21 12 23 35 3 26 -5 40 -52 87 -30 31 -61 56 -70 56 -20 0
-20 9 -1 34 16 21 45 15 45 -9 0 -8 3 -15 7 -15 14 0 43 34 43 52 0 10 5 18
10 18 6 0 10 52 10 135 0 109 -3 141 -16 161 -13 20 -16 39 -11 95 3 39 10 76
15 82 6 7 12 66 14 131 2 82 7 121 15 123 7 3 15 20 19 38 3 19 12 39 20 46 8
6 14 19 14 28 0 9 7 29 15 45 16 31 35 167 35 258 0 31 4 59 8 62 5 3 12 110
16 238 4 128 11 237 16 243 4 5 11 84 15 175 l7 165 -43 38 c-24 21 -53 47
-64 57 -12 11 -24 20 -29 20 -4 0 -33 23 -65 50 -32 28 -62 50 -67 50 -13 0
-84 75 -84 88 0 5 -6 15 -14 21 -7 6 -17 30 -20 53 -4 23 -10 47 -15 53 -4 5
-13 30 -21 55 -7 25 -17 49 -22 54 -4 6 -8 16 -8 24 0 7 -8 32 -19 55 -10 23
-22 56 -26 74 -3 17 -13 37 -21 44 -8 6 -14 19 -14 28 0 9 -4 21 -8 27 -5 5
-15 25 -22 44 -7 19 -24 58 -38 87 -26 54 -24 79 5 90 46 17 55 63 17 88 -24
15 -26 22 -21 64 3 25 13 60 21 76 9 17 19 45 22 63 3 17 10 32 15 32 5 0 9 5
9 11 0 6 11 25 25 43 14 18 25 36 25 41 0 4 13 24 29 44 16 21 33 49 36 64 4
15 11 30 16 33 5 3 9 30 9 60 l0 54 35 0 c19 0 35 5 35 10 0 6 21 10 47 10 72
0 277 21 288 30 6 4 43 11 83 15 39 4 72 10 72 14 0 4 37 12 82 20 46 7 87 16
93 20 5 5 33 12 60 16 28 4 55 10 60 13 11 8 92 29 115 31 9 0 47 -30 85 -67z
m3969 -271 c3 -5 -1 -14 -9 -21 -13 -10 -15 -9 -15 9 0 21 14 28 24 12z m-44
-106 c0 -8 -9 -15 -20 -15 -11 0 -20 7 -20 15 0 8 9 15 20 15 11 0 20 -7 20
-15z m-5770 -39 c0 -18 -17 -29 -30 -21 -8 5 -7 11 1 21 15 18 29 18 29 0z
m5700 -62 c0 -9 -7 -14 -17 -12 -25 5 -28 28 -4 28 12 0 21 -6 21 -16z m-5786
-63 c11 -18 -6 -41 -30 -41 -26 0 -32 18 -12 38 14 14 35 16 42 3z m86 -7 c0
-9 -7 -14 -17 -12 -25 5 -28 28 -4 28 12 0 21 -6 21 -16z m95 -24 c-3 -5 -13
-10 -21 -10 -8 0 -14 5 -14 10 0 6 9 10 21 10 11 0 17 -4 14 -10z m5555 -70
c0 -5 -7 -10 -15 -10 -8 0 -15 5 -15 10 0 6 7 10 15 10 8 0 15 -4 15 -10z
m-9085 -1101 c0 -8 -10 -15 -22 -17 -25 -4 -33 22 -10 31 18 8 32 2 32 -14z
m75 -43 c0 -7 -6 -19 -14 -25 -19 -16 -41 10 -24 27 16 16 38 15 38 -2z m670
-177 c0 -5 -10 -9 -21 -9 -18 0 -19 2 -9 15 12 15 30 12 30 -6z m-250 -54 c0
-8 -4 -15 -9 -15 -13 0 -22 16 -14 24 11 11 23 6 23 -9z m386 -94 c-8 -13 -36
-15 -36 -3 0 4 5 13 12 20 14 14 34 0 24 -17z m344 -85 c0 -20 -19 -31 -32
-18 -6 6 -7 15 -4 21 10 16 36 13 36 -3z m215 -56 c-3 -5 -13 -10 -21 -10 -8
0 -14 5 -14 10 0 6 9 10 21 10 11 0 17 -4 14 -10z m1183 -88 c2 -7 -4 -15 -13
-18 -20 -8 -27 -1 -19 20 7 18 25 17 32 -2z m-288 -52 c0 -5 -9 -10 -21 -10
-11 0 -17 5 -14 10 3 6 13 10 21 10 8 0 14 -4 14 -10z m1778 -532 c-3 -7 -13
-13 -23 -13 -10 0 -20 6 -22 13 -3 7 5 12 22 12 17 0 25 -5 23 -12z m264 -670
c-6 -24 -42 -24 -42 0 0 10 5 23 11 29 16 16 38 -5 31 -29z m-49 -433 c1 -5
-6 -11 -15 -13 -11 -2 -18 3 -18 13 0 17 30 18 33 0z m1 -114 c9 -15 -23 -36
-36 -23 -5 5 -7 15 -4 21 9 13 33 14 40 2z m4 -124 c4 -21 -25 -34 -40 -19 -8
8 -8 16 2 27 16 19 34 15 38 -8z m980 -55 c2 -13 -3 -24 -12 -28 -12 -5 -13
-9 -3 -25 10 -17 9 -23 -7 -34 -42 -32 -57 26 -24 93 14 28 42 25 46 -6z
m-100 -18 c4 -26 -22 -54 -49 -54 -22 0 -26 30 -6 60 16 26 51 22 55 -6z"/>
<path d="M4610 10604 c-11 -13 -9 -20 18 -46 26 -27 33 -29 46 -18 21 17 20
23 -10 54 -31 30 -37 31 -54 10z"/>
<path d="M6009 7884 c-31 -37 33 -71 65 -35 15 17 16 23 6 36 -16 20 -54 19
-71 -1z"/>
<path d="M5844 7785 c-4 -9 -2 -21 4 -27 15 -15 44 -1 40 19 -4 23 -36 29 -44
8z"/>
<path d="M6038 7613 c-10 -3 -18 -8 -18 -12 0 -5 -14 -11 -31 -15 -17 -3 -43
-15 -59 -26 -15 -11 -33 -20 -39 -20 -6 0 -11 -4 -11 -9 0 -5 -13 -12 -30 -16
-16 -4 -30 -10 -30 -13 0 -4 -12 -13 -27 -20 -27 -12 -93 -67 -93 -77 0 -12
37 -3 60 15 14 11 29 20 33 20 5 0 23 11 41 25 18 14 37 25 41 25 4 0 22 11
40 24 17 14 49 28 69 32 44 8 96 48 81 62 -5 5 -18 7 -27 5z"/>
<path d="M5255 11330 l-40 -7 45 -1 c25 -1 52 3 60 8 12 8 11 9 -5 8 -11 0
-38 -4 -60 -8z"/>
<path d="M7050 11275 c-11 -14 -10 -19 7 -37 29 -28 65 -17 61 20 -2 21 -9 28
-29 30 -15 2 -31 -4 -39 -13z"/>
<path d="M8970 10115 c-15 -18 -6 -45 14 -45 18 0 27 37 11 50 -9 7 -16 6 -25
-5z"/>
<path d="M11307 7722 l-27 -28 25 -45 c14 -24 31 -56 37 -71 7 -16 16 -28 20
-28 4 0 8 -6 8 -13 0 -17 110 -127 127 -127 17 0 16 21 -2 56 -8 16 -18 50
-21 77 -4 26 -10 47 -14 47 -5 0 -12 15 -16 32 -9 43 -33 79 -50 76 -8 -2 -20
8 -27 21 -17 35 -29 35 -60 3z"/>
</g>
</svg>
